<?xml version="1.0" encoding="UTF-8"?>
<svg id="Layer_1" xmlns="http://www.w3.org/2000/svg" version="1.1" viewBox="0 0 755.6495 496.7042">
	<defs>
		<style>
			.st0 {
				fill: #ba68c8;
			}
		</style>
	</defs>
	<path class="st0" d="M243.9787,267.1603v-36.8583H48.9386v-25.8008L163.1995,50.9246h44.23l-109.9607,147.4334h146.5099V50.9246h40.8534v147.4334h22.7293v31.9439h-22.7293v36.8583h-40.8534Z"/>
	<path class="st0" d="M374.1668,267.1603V81.3307l-15.0485,17.2006h-43.0014l42.0779-47.6067h56.8213v216.2356h-40.8493Z"/>
	<path class="st0" d="M497.0076,267.1603l144.3578-184.2917h-195.9595v-31.9439h242.0365v25.8008l-144.0567,190.4348h-46.3781Z"/>
	<rect class="st0" x="41.5738" y="307.3858" width="645.8686" height="25.5447"/>
	<g>
		<path class="st0" d="M178.2093,392.5564h-58.543v59.4647h-19.173v-59.4647h-58.6579v-19.4003h136.374v19.4003Z"/>
		<path class="st0" d="M349.2575,452.0211h-138.2173l-19.7425-19.9748v-58.8902h157.9598v19.4003h-138.7918v11.1351h137.9875v15.2689h-137.9875v13.6604h138.7918v19.4003Z"/>
		<path class="st0" d="M516.3942,452.0211h-134.3108l-19.7425-19.9748v-39.0304l19.7425-19.8599h134.3108v19.4003h-134.8853v39.9495h134.8853v19.5152Z"/>
		<path class="st0" d="M687.4424,452.0211h-19.173v-33.0607h-119.6188v33.0607h-19.168v-78.865h19.168v30.5354h119.6188v-30.5354h19.173v78.865Z"/>
	</g>
</svg>
