<?xml version="1.0" encoding="UTF-8"?>
<svg id="Layer_1" xmlns="http://www.w3.org/2000/svg" version="1.1" viewBox="0 0 1822.7473 311.3002">
	<defs>
		<style>
			.st0 {
				fill: #ffffff;
			}
		</style>
	</defs>
	<path class="st0" d="M240.8961,260.4834v-36.8583H45.856v-25.8008L160.1169,44.2478h44.23l-109.9607,147.4334h146.5099V44.2478h40.8534v147.4334h22.7293v31.9439h-22.7293v36.8583h-40.8534Z"/>
	<path class="st0" d="M371.0841,260.4834V74.6539l-15.0485,17.2006h-43.0014l42.0779-47.6067h56.8213v216.2356h-40.8493Z"/>
	<path class="st0" d="M493.925,260.4834l144.3578-184.2917h-195.9595v-31.9439h242.0365v25.8008l-144.0567,190.4348h-46.3781Z"/>
	<rect class="st0" x="705.0477" y="44.2478" width="1071.8185" height="31.9439"/>
	<g>
		<path class="st0" d="M931.4519,161.7618h-97.1915v98.7217h-31.8304v-98.7217h-97.3823v-32.2078h226.4042v32.2078Z"/>
		<path class="st0" d="M1215.4213,260.4834h-229.4645l-32.7759-33.1616v-97.7679h262.2404v32.2078h-230.4183v18.4862h229.083v25.3491h-229.083v22.6786h230.4183v32.2078Z"/>
		<path class="st0" d="M1492.8969,260.4834h-222.979l-32.7759-33.1616v-64.7971l32.7759-32.9708h222.979v32.2078h-223.9327v66.3231h223.9327v32.3986Z"/>
		<path class="st0" d="M1776.8663,260.4834h-31.8304v-54.8864h-198.5878v54.8864h-31.8222v-130.9295h31.8222v50.694h198.5878v-50.694h31.8304v130.9295Z"/>
	</g>
</svg>
